<?xml version="1.0" standalone="no"?>
<!DOCTYPE svg PUBLIC "-//W3C//DTD SVG 20010904//EN"
 "http://www.w3.org/TR/2001/REC-SVG-20010904/DTD/svg10.dtd">
<svg version="1.0" width="27" height="39" viewBox="0 0 27 39" fill="none" xmlns="http://www.w3.org/2000/svg">
  <path
    d="M13 0H19C23.4183 0 27 3.58172 27 8V17C27 21.4183 23.4183 25 19 25H13V0Z"
    fill="#F2F2F2"/>
  <rect width="10" height="39" fill="#F2F2F2"/>
  <path
    d="M13 8H17C18.1046 8 19 8.89543 19 10V15C19 16.1046 18.1046 17 17 17H13V8Z"
    fill="#181823"/>
  <rect x="10" width="3" height="25"/>
  <path
    d="M17.035 12.5712C17.0153 13.9518 15.8801 15.055 14.4995 15.0352C13.119 15.0155 12.0158 13.8803 12.0355 12.4997C12.0553 11.1192 13.1905 10.016 14.571 10.0357C15.9516 10.0555 17.0548 11.1907 17.035 12.5712Z"
    fill="#F2F2F2"/>
  <path d="M14 8.99994H15V15.9999H14V8.99994Z" fill="#F2F2F2"/>
</svg>
