<svg width="260" height="260" viewBox="0 0 260 260" fill="none" xmlns="http://www.w3.org/2000/svg">
<rect width="260" height="260" fill="#181823"/>
<path d="M127.333 20H198.308C202.726 20 206.308 23.5817 206.308 28V153.026C206.308 157.444 202.726 161.026 198.308 161.026H127.333V20Z" fill="#F2F2F2"/>
<rect x="54" y="20" width="56.4102" height="220" fill="#F2F2F2"/>
<path d="M127.333 65.1282H159.18C160.284 65.1282 161.18 66.0236 161.18 67.1282V113.897C161.18 115.002 160.284 115.897 159.18 115.897H127.333V65.1282Z" fill="#181823"/>
<rect x="110.41" y="20" width="16.9231" height="141.026" fill="#181823"/>
<path d="M150.095 90.915C149.984 98.7028 143.58 104.926 135.792 104.814C128.004 104.703 121.781 98.2994 121.893 90.5116C122.004 82.7238 128.408 76.5008 136.196 76.6122C143.983 76.7236 150.206 83.1272 150.095 90.915Z" fill="#F2F2F2"/>
<path d="M132.974 70.7692H138.615V110.256H132.974V70.7692Z" fill="#F2F2F2"/>
</svg>
