<svg width="260" height="260" viewBox="0 0 260 260" fill="none" xmlns="http://www.w3.org/2000/svg">
  <rect width="260" height="260" rx="100" fill="#181823"/>
  <path d="M55.72 31.856H113.32V230H55.72V31.856ZM125.416 124.304H132.328C138.472 124.304 142.984 124.112 145.864 123.728C148.936 123.152 151.336 122 153.064 120.272C154.792 118.736 155.848 116.528 156.232 113.648C156.808 110.576 157.096 106.064 157.096 100.112C157.096 94.16 156.808 89.744 156.232 86.864C155.848 83.792 154.792 81.392 153.064 79.664C151.336 78.128 148.936 77.168 145.864 76.784C142.792 76.208 138.28 75.92 132.328 75.92H125.416V31.856H149.32C163.528 31.856 175.048 33.296 183.88 36.176C192.904 38.864 199.72 43.088 204.328 48.848C208.744 54.224 211.72 61.04 213.256 69.296C214.792 77.36 215.56 87.632 215.56 100.112C215.56 112.016 214.792 121.904 213.256 129.776C211.912 137.648 209.128 144.272 204.904 149.648C200.104 155.792 193.192 160.496 184.168 163.76C175.336 166.832 163.72 168.368 149.32 168.368H125.416V124.304Z" fill="#F2F2F2"/>
</svg>
