<svg xmlns="http://www.w3.org/2000/svg" width="260" height="260" fill="none" viewBox="0 0 260 260"><rect width="260" height="260" fill="#181823" rx="100"/><path fill="#F2F2F2" d="M65.25 45H115.25V217H65.25V45ZM125.75 125.25H131.75C137.083 125.25 141 125.083 143.5 124.75C146.167 124.25 148.25 123.25 149.75 121.75C151.25 120.417 152.167 118.5 152.5 116C153 113.333 153.25 109.417 153.25 104.25C153.25 99.0833 153 95.25 152.5 92.75C152.167 90.0833 151.25 88 149.75 86.5C148.25 85.1667 146.167 84.3333 143.5 84C140.833 83.5 136.917 83.25 131.75 83.25H125.75V45H146.5C158.833 45 168.833 46.25 176.5 48.75C184.333 51.0833 190.25 54.75 194.25 59.75C198.083 64.4167 200.667 70.3333 202 77.5C203.333 84.5 204 93.4167 204 104.25C204 114.583 203.333 123.167 202 130C200.833 136.833 198.417 142.583 194.75 147.25C190.583 152.583 184.583 156.667 176.75 159.5C169.083 162.167 159 163.5 146.5 163.5H125.75V125.25Z"/></svg>