<?xml version="1.0" standalone="no"?>
<!DOCTYPE svg PUBLIC "-//W3C//DTD SVG 20010904//EN"
 "http://www.w3.org/TR/2001/REC-SVG-20010904/DTD/svg10.dtd">
<svg version="1.0" width="205" height="39" viewBox="0 0 205 39" fill="none" xmlns="http://www.w3.org/2000/svg">
  <path d="M205 0H0V39H205V0Z" fill="#181823" />
  <path
    d="M0.12 0.975999H9.72V34H0.12V0.975999ZM11.736 16.384H12.888C13.912 16.384 14.664 16.352 15.144 16.288C15.656 16.192 16.056 16 16.344 15.712C16.632 15.456 16.808 15.088 16.872 14.608C16.968 14.096 17.016 13.344 17.016 12.352C17.016 11.36 16.968 10.624 16.872 10.144C16.808 9.632 16.632 9.232 16.344 8.944C16.056 8.688 15.656 8.528 15.144 8.464C14.632 8.368 13.88 8.32 12.888 8.32H11.736V0.975999H15.72C18.088 0.975999 20.008 1.216 21.48 1.696C22.984 2.144 24.12 2.848 24.888 3.808C25.624 4.704 26.12 5.84 26.376 7.216C26.632 8.56 26.76 10.272 26.76 12.352C26.76 14.336 26.632 15.984 26.376 17.296C26.152 18.608 25.688 19.712 24.984 20.608C24.184 21.632 23.032 22.416 21.528 22.96C20.056 23.472 18.12 23.728 15.72 23.728H11.736V16.384ZM31.0575 0.975999H40.6575V34H31.0575V0.975999ZM65.2373 17.488C65.2373 14.704 65.2213 12.88 65.1893 12.016C65.1253 10.704 64.9493 9.76 64.6613 9.184C64.3733 8.576 63.9093 8.208 63.2693 8.08C62.6293 7.984 61.7173 7.936 60.5333 7.936C59.1573 7.936 58.2613 8 57.8453 8.128V0.639997C58.1333 0.607998 58.5653 0.591998 59.1413 0.591998H60.5333C64.1173 0.591998 66.8853 0.879998 68.8373 1.456C70.8213 2 72.2613 2.912 73.1573 4.192C73.9893 5.376 74.5013 6.928 74.6933 8.848C74.9173 10.768 75.0293 13.648 75.0293 17.488C75.0293 20.848 74.9493 23.44 74.7893 25.264C74.6613 27.056 74.3093 28.544 73.7333 29.728C73.0933 31.072 72.1013 32.096 70.7573 32.8C69.4453 33.504 67.6053 33.968 65.2373 34.192V17.488ZM60.5333 34.384C55.8613 34.384 52.5013 33.872 50.4533 32.848C49.3973 32.336 48.5653 31.648 47.9573 30.784C47.3493 29.92 46.9013 28.848 46.6133 27.568C46.3573 26.448 46.1973 25.168 46.1333 23.728C46.0693 22.256 46.0373 20.176 46.0373 17.488C46.0373 14.128 46.1013 11.552 46.2293 9.76C46.3893 7.968 46.7573 6.464 47.3333 5.248C47.9733 3.936 48.9493 2.928 50.2613 2.224C51.5733 1.52 53.4293 1.04 55.8293 0.783998V17.488C55.8293 19.376 55.8613 21.184 55.9253 22.912C55.9893 24.224 56.1493 25.184 56.4053 25.792C56.6933 26.4 57.1573 26.752 57.7973 26.848C58.3413 26.976 59.2533 27.04 60.5333 27.04C61.8453 27.04 62.7413 26.992 63.2213 26.896V34.336C62.9333 34.368 62.5013 34.384 61.9253 34.384H60.5333ZM93.8569 34.384C90.4969 34.384 87.9049 34.112 86.0809 33.568C84.2569 33.024 82.9129 32.144 82.0489 30.928C81.2489 29.808 80.7529 28.384 80.5609 26.656C80.3689 24.928 80.2729 22.352 80.2729 18.928V0.975999H89.8729V20.848C89.8729 22.032 89.9049 23.168 89.9689 24.256C90.0329 25.12 90.1769 25.744 90.4009 26.128C90.6249 26.512 91.0089 26.752 91.5529 26.848C92.0329 26.976 92.8009 27.04 93.8569 27.04H94.9609C95.2169 27.04 95.5049 27.008 95.8249 26.944V34.336C95.6009 34.368 95.2809 34.384 94.8649 34.384H93.8569ZM97.8409 0.975999H107.441V18.928C107.441 22.064 107.377 24.432 107.249 26.032C107.121 27.632 106.769 28.976 106.193 30.064C105.553 31.312 104.577 32.272 103.265 32.944C101.953 33.616 100.145 34.048 97.8409 34.24V0.975999ZM136.31 8.56C135.254 8.432 133.398 8.256 130.742 8.032C129.27 7.968 128.086 7.936 127.19 7.936C126.038 7.936 124.95 7.968 123.926 8.032V0.591998H125.126C127.75 0.591998 130.47 0.767998 133.286 1.12C134.182 1.248 135.19 1.424 136.31 1.648V8.56ZM128.39 24.256C128.39 23.584 128.342 23.104 128.246 22.816C128.15 22.496 127.99 22.288 127.766 22.192C127.542 22.064 127.158 21.968 126.614 21.904L120.71 21.184C117.222 20.8 114.87 19.664 113.654 17.776C113.11 16.976 112.742 16 112.55 14.848C112.358 13.696 112.262 12.288 112.262 10.624C112.262 7.072 113.174 4.512 114.998 2.944C116.47 1.664 118.774 0.911999 121.91 0.688V10.336C121.91 10.752 121.926 11.104 121.958 11.392C121.99 11.68 122.054 11.904 122.15 12.064C122.246 12.256 122.406 12.4 122.63 12.496C122.854 12.56 123.19 12.608 123.638 12.64L130.262 13.456C131.638 13.648 132.758 13.888 133.622 14.176C134.486 14.464 135.222 14.912 135.83 15.52C137.27 17.024 137.99 19.696 137.99 23.536C137.99 27.6 137.094 30.448 135.302 32.08C134.502 32.816 133.526 33.36 132.374 33.712C131.254 34.032 129.926 34.24 128.39 34.336V24.256ZM125.846 34.384C122.646 34.384 119.67 34.24 116.918 33.952C115.286 33.792 114.054 33.632 113.222 33.472V26.464C115.11 26.624 117.27 26.784 119.702 26.944C121.238 27.008 122.326 27.04 122.966 27.04C124.694 27.04 125.83 26.992 126.374 26.896V34.384H125.846ZM161.284 17.488C161.284 14.704 161.268 12.88 161.236 12.016C161.172 10.704 160.996 9.76 160.708 9.184C160.42 8.576 159.956 8.208 159.316 8.08C158.676 7.984 157.764 7.936 156.58 7.936C155.204 7.936 154.308 8 153.892 8.128V0.639997C154.18 0.607998 154.612 0.591998 155.188 0.591998H156.58C160.164 0.591998 162.932 0.879998 164.884 1.456C166.868 2 168.308 2.912 169.204 4.192C170.036 5.376 170.548 6.928 170.74 8.848C170.964 10.768 171.076 13.648 171.076 17.488C171.076 20.848 170.996 23.44 170.836 25.264C170.708 27.056 170.356 28.544 169.78 29.728C169.14 31.072 168.148 32.096 166.804 32.8C165.492 33.504 163.652 33.968 161.284 34.192V17.488ZM156.58 34.384C151.908 34.384 148.548 33.872 146.5 32.848C145.444 32.336 144.612 31.648 144.004 30.784C143.396 29.92 142.948 28.848 142.66 27.568C142.404 26.448 142.244 25.168 142.18 23.728C142.116 22.256 142.084 20.176 142.084 17.488C142.084 14.128 142.148 11.552 142.276 9.76C142.436 7.968 142.804 6.464 143.38 5.248C144.02 3.936 144.996 2.928 146.308 2.224C147.62 1.52 149.476 1.04 151.876 0.783998V17.488C151.876 19.376 151.908 21.184 151.972 22.912C152.036 24.224 152.196 25.184 152.452 25.792C152.74 26.4 153.204 26.752 153.844 26.848C154.388 26.976 155.3 27.04 156.58 27.04C157.892 27.04 158.788 26.992 159.268 26.896V34.336C158.98 34.368 158.548 34.384 157.972 34.384H156.58ZM176.464 2.32V0.975999H186.064L204.592 32.608V34H195.04L176.464 2.32ZM195.472 13.024V0.975999H204.592V28.624L195.472 13.024ZM176.464 6.304L185.584 21.904V34H176.464V6.304Z"
    fill="#F2F2F2" />
  <path
    d="M19 0H9C4.58172 0 1 3.58172 1 8V17C1 21.4183 4.58172 25 9 25H19C23.4183 25 27 21.4183 27 17V8C27 3.58172 23.4183 0 19 0Z"
    fill="#F2F2F2" />
  <path d="M10 0H0V39H10V0Z" fill="#F2F2F2" />
  <path
    d="M17 8H12C10.8954 8 10 8.89543 10 10V15C10 16.1046 10.8954 17 12 17H17C18.1046 17 19 16.1046 19 15V10C19 8.89543 18.1046 8 17 8Z"
    fill="#181823" />
  <path d="M13 0H10V25H13V0Z" fill="#181823" />
  <path
    d="M14.4995 15.0352C15.8801 15.055 17.0153 13.9518 17.035 12.5713C17.0548 11.1907 15.9516 10.0555 14.571 10.0358C13.1905 10.016 12.0553 11.1192 12.0355 12.4997C12.0158 13.8803 13.119 15.0155 14.4995 15.0352Z"
    fill="#F2F2F2" />
  <path d="M15 9H14V16H15V9Z" fill="#F2F2F2" />
</svg>