<?xml version="1.0" standalone="no"?>
<!DOCTYPE svg PUBLIC "-//W3C//DTD SVG 20010904//EN"
 "http://www.w3.org/TR/2001/REC-SVG-20010904/DTD/svg10.dtd">
<svg version="1.0" xmlns="http://www.w3.org/2000/svg"
 width="260.000000pt" height="260.000000pt" viewBox="0 0 260.000000 260.000000"
 preserveAspectRatio="xMidYMid meet">
<metadata>
Created by potrace 1.11, written by Peter Selinger 2001-2013
</metadata>
<g transform="translate(0.000000,260.000000) scale(0.100000,-0.100000)"
fill="#000000" stroke="none">
<path d="M0 1300 l0 -1300 1300 0 1300 0 0 1300 0 1300 -1300 0 -1300 0 0
-1300z m1100 0 l0 -1100 -280 0 -280 0 0 1100 0 1100 280 0 280 0 0 -1100z
m935 1075 l25 -24 0 -656 0 -656 -25 -24 -24 -25 -371 0 -370 0 0 225 0 225
168 2 167 3 0 250 0 250 -167 3 -168 2 0 225 0 225 370 0 371 0 24 -25z m-645
-512 c0 -22 9 -33 39 -50 95 -55 92 -197 -6 -243 -25 -12 -33 -21 -33 -42 0
-24 -4 -28 -30 -28 -26 0 -30 4 -30 28 0 21 -8 30 -33 42 -17 8 -42 31 -55 50
-44 65 -13 171 58 200 24 10 30 19 30 41 0 26 4 29 30 29 26 0 30 -4 30 -27z"/>
</g>
</svg>
